<svg width="371" height="273" viewBox="0 0 371 273" fill="none" xmlns="http://www.w3.org/2000/svg">
<path d="M370.239 1H1V216.432H370.239V1Z" stroke="#A690F4"/>
<path d="M303.716 270.905L302.955 202.522L358.183 242.944L325.129 232.344C320.614 230.896 315.777 233.379 314.328 237.89L303.716 270.905Z" fill="#F9B3E7"/>
<path d="M128.745 134.632C128.745 125.036 130.574 116.611 134.232 109.357C138.003 102.104 143.09 96.5257 149.492 92.6197C155.893 88.7137 163.038 86.7616 170.925 86.7616C177.213 86.7616 182.928 88.0447 188.072 90.611C193.331 93.1772 197.447 96.6372 200.418 100.989V57.0303H230.809V119.726V150.31V182.424H200.418V168.108C197.676 172.571 193.731 176.141 188.587 178.82C183.557 181.498 177.67 182.836 170.925 182.836C163.038 182.836 155.893 180.884 149.492 176.978C143.09 172.961 138.003 167.325 134.232 160.073C130.574 152.708 128.745 144.228 128.745 134.632ZM200.418 134.8C200.418 127.657 198.361 122.022 194.246 117.894C190.244 113.765 185.329 111.7 179.499 111.7C173.67 111.7 168.696 113.765 164.581 117.894C160.58 121.91 158.579 127.49 158.579 134.632C158.579 141.773 160.58 147.465 164.581 151.705C168.696 155.832 173.67 157.898 179.499 157.898C185.329 157.898 190.244 155.832 194.246 151.705C198.361 147.576 200.418 141.941 200.418 134.8ZM294.506 182.836C285.132 182.836 276.672 180.884 269.128 176.978C261.698 173.074 255.811 167.494 251.466 160.241C247.238 152.988 245.122 144.507 245.122 134.8C245.122 125.202 247.294 116.778 251.638 109.525C255.983 102.161 261.927 96.5257 269.471 92.6197C277.016 88.7137 285.475 86.7616 294.849 86.7616C304.223 86.7616 312.681 88.7137 320.227 92.6197C327.771 96.5257 333.715 102.161 338.059 109.525C342.404 116.778 344.574 125.202 344.574 134.8C344.574 144.396 342.345 152.877 337.887 160.241C333.544 167.494 327.543 173.074 319.883 176.978C312.339 180.884 303.879 182.836 294.506 182.836ZM294.506 158.064C300.108 158.064 304.851 156.055 308.738 152.039C312.739 148.022 314.74 142.275 314.74 134.8C314.74 127.322 312.796 121.576 308.909 117.558C305.136 113.542 300.449 111.534 294.849 111.534C289.134 111.534 284.388 113.542 280.617 117.558C276.844 121.464 274.958 127.211 274.958 134.8C274.958 142.275 276.787 148.022 280.445 152.039C284.218 156.055 288.905 158.064 294.506 158.064Z" fill="white"/>
<path d="M33.8262 179.368V87.6143H64.4455V182.426H33.8262V179.368Z" fill="white"/>
<path d="M30.7573 53.9717C30.7573 64.1063 38.9836 72.3231 49.13 72.3231C59.2763 72.3231 67.5009 64.1063 67.5009 53.9717C67.5009 43.8371 59.2763 35.6221 49.13 35.6221C38.9836 35.6221 30.7573 43.8371 30.7573 53.9717Z" fill="#F9B3E7"/>
</svg>
