<svg width="208" height="152" viewBox="0 0 208 152" fill="none" xmlns="http://www.w3.org/2000/svg">
<path d="M206.942 0.864258H0.597824V120.942H206.942V0.864258Z" stroke="#A690F4" stroke-opacity="0.75"/>
<path d="M170.007 151.872L169.579 113.516L200.555 136.189L185.606 131.396C181.091 129.948 176.254 132.43 174.805 136.94L170.007 151.872Z" fill="#F9B3E7"/>
<path d="M71.8696 75.4379C71.8696 70.0567 72.8949 65.3308 74.9471 61.2636C77.063 57.1946 79.9155 54.0658 83.5066 51.8752C87.0977 49.6846 91.1044 48.5885 95.5283 48.5885C99.0542 48.5885 102.261 49.309 105.146 50.7482C108.095 52.1874 110.403 54.1275 112.07 56.5685V31.9131H129.115V67.0788V84.2328V102.245H112.07V94.2147C110.531 96.7175 108.319 98.7211 105.434 100.222C102.613 101.725 99.3118 102.476 95.5283 102.476C91.1044 102.476 87.0977 101.38 83.5066 99.1894C79.9155 96.9371 77.063 93.7756 74.9471 89.7084C72.8949 85.5777 71.8696 80.8209 71.8696 75.4379ZM112.07 75.5323C112.07 71.5269 110.916 68.3671 108.608 66.0513C106.363 63.7355 103.607 62.5776 100.337 62.5776C97.0671 62.5776 94.2781 63.7355 91.9699 66.0513C89.7253 68.3036 88.6038 71.4325 88.6038 75.4379C88.6038 79.4434 89.7253 82.6358 91.9699 85.015C94.2781 87.3291 97.0671 88.487 100.337 88.487C103.607 88.487 106.363 87.3291 108.608 85.015C110.916 82.6992 112.07 79.5378 112.07 75.5323ZM164.842 102.476C159.584 102.476 154.84 101.38 150.609 99.1894C146.44 96.9988 143.138 93.87 140.703 89.8027C138.329 85.7338 137.144 80.977 137.144 75.5323C137.144 70.1494 138.362 65.4252 140.799 61.3562C143.234 57.2255 146.569 54.0658 150.801 51.8752C155.033 49.6846 159.776 48.5885 165.035 48.5885C170.292 48.5885 175.037 49.6846 179.268 51.8752C183.5 54.0658 186.833 57.2255 189.27 61.3562C191.706 65.4252 192.925 70.1494 192.925 75.5323C192.925 80.9153 191.675 85.6721 189.174 89.8027C186.737 93.87 183.371 96.9988 179.076 99.1894C174.844 101.38 170.099 102.476 164.842 102.476ZM164.842 88.5814C167.983 88.5814 170.644 87.4544 172.825 85.202C175.068 82.9497 176.191 79.7265 176.191 75.5323C176.191 71.3399 175.1 68.1166 172.921 65.8626C170.805 63.6102 168.176 62.4833 165.035 62.4833C161.828 62.4833 159.168 63.6102 157.052 65.8626C154.936 68.0531 153.878 71.2764 153.878 75.5323C153.878 79.7265 154.904 82.9497 156.956 85.202C159.072 87.4544 161.699 88.5814 164.842 88.5814Z" fill="#8E75E3"/>
<path d="M18.6304 100.529V49.0669H35.8044V102.244H18.6304V100.529Z" fill="#8E75E3"/>
<path d="M16.9131 30.1977C16.9131 35.8825 21.526 40.4901 27.2174 40.4901C32.9088 40.4901 37.5217 35.8825 37.5217 30.1977C37.5217 24.5128 32.9088 19.9053 27.2174 19.9053C21.526 19.9053 16.9131 24.5128 16.9131 30.1977Z" fill="#F9B3E7"/>
</svg>
